<mxfile host="Electron" modified="2024-05-11T09:09:37.757Z" agent="Mozilla/5.0 (Windows NT 10.0; Win64; x64) AppleWebKit/537.36 (KHTML, like Gecko) draw.io/24.2.5 Chrome/120.0.6099.109 Electron/28.1.0 Safari/537.36" etag="-9QZSmNT2rICUYO7aXAN" version="24.2.5" type="device">
  <diagram name="Pagina-1" id="fFPHhNlSrmvKlKYuAJRC">
    <mxGraphModel dx="1635" dy="478" grid="1" gridSize="10" guides="1" tooltips="1" connect="1" arrows="1" fold="1" page="1" pageScale="1" pageWidth="827" pageHeight="1169" math="0" shadow="0">
      <root>
        <mxCell id="0" />
        <mxCell id="1" parent="0" />
        <mxCell id="ON7FVvxAz2R6hxNgBrQi-1" style="edgeStyle=orthogonalEdgeStyle;rounded=0;orthogonalLoop=1;jettySize=auto;html=1;exitX=0;exitY=0.5;exitDx=0;exitDy=0;endArrow=oval;endFill=0;" edge="1" parent="1">
          <mxGeometry relative="1" as="geometry">
            <mxPoint x="-240" y="80" as="targetPoint" />
            <mxPoint x="-220" y="77.1150000000001" as="sourcePoint" />
            <Array as="points">
              <mxPoint x="-220" y="80" />
            </Array>
          </mxGeometry>
        </mxCell>
        <mxCell id="ON7FVvxAz2R6hxNgBrQi-2" value="Visitatore" style="whiteSpace=wrap;html=1;align=center;" vertex="1" parent="1">
          <mxGeometry x="-220" y="50" width="60" height="40.01" as="geometry" />
        </mxCell>
        <mxCell id="ON7FVvxAz2R6hxNgBrQi-3" value="Oggetti Informatici" style="whiteSpace=wrap;html=1;align=center;" vertex="1" parent="1">
          <mxGeometry x="216.88" y="51.25" width="100" height="35" as="geometry" />
        </mxCell>
        <mxCell id="ON7FVvxAz2R6hxNgBrQi-4" value="&lt;font style=&quot;font-size: 8px;&quot;&gt;Nome&lt;/font&gt;" style="text;html=1;align=center;verticalAlign=middle;whiteSpace=wrap;rounded=0;" vertex="1" parent="1">
          <mxGeometry x="-220" y="17.509999999999998" width="25" height="10" as="geometry" />
        </mxCell>
        <mxCell id="ON7FVvxAz2R6hxNgBrQi-5" value="&lt;font style=&quot;font-size: 8px;&quot;&gt;Cognome&lt;/font&gt;" style="text;html=1;align=center;verticalAlign=middle;whiteSpace=wrap;rounded=0;" vertex="1" parent="1">
          <mxGeometry x="-200" y="7.509999999999999" width="60" height="30" as="geometry" />
        </mxCell>
        <mxCell id="ON7FVvxAz2R6hxNgBrQi-6" value="&lt;font style=&quot;font-size: 8px;&quot;&gt;Misura&lt;/font&gt;" style="text;html=1;align=center;verticalAlign=middle;whiteSpace=wrap;rounded=1;strokeColor=none;" vertex="1" parent="1">
          <mxGeometry x="334" y="71" width="50" height="12" as="geometry" />
        </mxCell>
        <mxCell id="ON7FVvxAz2R6hxNgBrQi-7" value="&lt;font style=&quot;font-size: 8px;&quot;&gt;Modello&lt;/font&gt;" style="text;html=1;align=center;verticalAlign=middle;whiteSpace=wrap;rounded=1;strokeColor=none;" vertex="1" parent="1">
          <mxGeometry x="293.13" y="13.760000000000005" width="40" height="20" as="geometry" />
        </mxCell>
        <mxCell id="ON7FVvxAz2R6hxNgBrQi-8" value="&lt;font style=&quot;font-size: 8px;&quot;&gt;Marca&lt;/font&gt;" style="text;html=1;align=center;verticalAlign=middle;whiteSpace=wrap;rounded=1;strokeColor=none;glass=0;" vertex="1" parent="1">
          <mxGeometry x="253.76" y="16.259999999999998" width="50" height="15" as="geometry" />
        </mxCell>
        <mxCell id="ON7FVvxAz2R6hxNgBrQi-9" value="&lt;font style=&quot;font-size: 8px;&quot;&gt;CF&lt;/font&gt;" style="text;html=1;align=center;verticalAlign=middle;whiteSpace=wrap;rounded=0;" vertex="1" parent="1">
          <mxGeometry x="-260" y="54.379999999999995" width="20" height="10" as="geometry" />
        </mxCell>
        <mxCell id="ON7FVvxAz2R6hxNgBrQi-10" style="edgeStyle=orthogonalEdgeStyle;rounded=0;orthogonalLoop=1;jettySize=auto;html=1;exitX=0;exitY=0;exitDx=0;exitDy=0;endArrow=oval;endFill=0;" edge="1" parent="1">
          <mxGeometry relative="1" as="geometry">
            <mxPoint x="-210" y="32" as="targetPoint" />
            <mxPoint x="-210" y="50" as="sourcePoint" />
            <Array as="points" />
          </mxGeometry>
        </mxCell>
        <mxCell id="ON7FVvxAz2R6hxNgBrQi-11" style="edgeStyle=orthogonalEdgeStyle;rounded=0;orthogonalLoop=1;jettySize=auto;html=1;exitX=0;exitY=0;exitDx=0;exitDy=0;endArrow=oval;endFill=0;" edge="1" parent="1">
          <mxGeometry relative="1" as="geometry">
            <mxPoint x="-170" y="32" as="targetPoint" />
            <mxPoint x="-170" y="50" as="sourcePoint" />
            <Array as="points" />
          </mxGeometry>
        </mxCell>
        <mxCell id="ON7FVvxAz2R6hxNgBrQi-12" value="&lt;font style=&quot;font-size: 8px;&quot;&gt;Email&lt;/font&gt;" style="text;html=1;align=center;verticalAlign=middle;whiteSpace=wrap;rounded=0;" vertex="1" parent="1">
          <mxGeometry x="-270" y="76" width="30" height="7" as="geometry" />
        </mxCell>
        <mxCell id="ON7FVvxAz2R6hxNgBrQi-13" style="edgeStyle=orthogonalEdgeStyle;rounded=0;orthogonalLoop=1;jettySize=auto;html=1;exitX=0;exitY=0.25;exitDx=0;exitDy=0;endArrow=oval;endFill=1;" edge="1" parent="1" source="ON7FVvxAz2R6hxNgBrQi-2">
          <mxGeometry relative="1" as="geometry">
            <mxPoint x="-240" y="60" as="targetPoint" />
            <mxPoint x="-285" y="38.760000000000005" as="sourcePoint" />
            <Array as="points" />
          </mxGeometry>
        </mxCell>
        <mxCell id="ON7FVvxAz2R6hxNgBrQi-14" value="" style="endArrow=none;html=1;rounded=0;exitX=1;exitY=0.5;exitDx=0;exitDy=0;" edge="1" parent="1" source="ON7FVvxAz2R6hxNgBrQi-2">
          <mxGeometry width="50" height="50" relative="1" as="geometry">
            <mxPoint x="-70" y="60" as="sourcePoint" />
            <mxPoint x="-20" y="70" as="targetPoint" />
          </mxGeometry>
        </mxCell>
        <mxCell id="ON7FVvxAz2R6hxNgBrQi-15" value="" style="endArrow=none;html=1;rounded=0;exitX=1;exitY=0.5;exitDx=0;exitDy=0;entryX=0;entryY=0.5;entryDx=0;entryDy=0;" edge="1" parent="1" target="ON7FVvxAz2R6hxNgBrQi-3">
          <mxGeometry width="50" height="50" relative="1" as="geometry">
            <mxPoint x="46.88000000000011" y="70.01499999999987" as="sourcePoint" />
            <mxPoint x="120" y="-10" as="targetPoint" />
          </mxGeometry>
        </mxCell>
        <mxCell id="ON7FVvxAz2R6hxNgBrQi-20" style="edgeStyle=orthogonalEdgeStyle;rounded=0;orthogonalLoop=1;jettySize=auto;html=1;exitX=0;exitY=0;exitDx=0;exitDy=0;endArrow=oval;endFill=1;" edge="1" parent="1">
          <mxGeometry relative="1" as="geometry">
            <mxPoint x="221.88" y="33.25" as="targetPoint" />
            <mxPoint x="221.88" y="51.25" as="sourcePoint" />
            <Array as="points" />
          </mxGeometry>
        </mxCell>
        <mxCell id="ON7FVvxAz2R6hxNgBrQi-21" value="&lt;font style=&quot;font-size: 8px;&quot;&gt;Numero di serie&lt;/font&gt;" style="text;html=1;align=center;verticalAlign=middle;whiteSpace=wrap;rounded=1;strokeColor=none;glass=0;" vertex="1" parent="1">
          <mxGeometry x="192.51" y="20.01" width="65.62" height="7.5" as="geometry" />
        </mxCell>
        <mxCell id="ON7FVvxAz2R6hxNgBrQi-22" style="edgeStyle=orthogonalEdgeStyle;rounded=0;orthogonalLoop=1;jettySize=auto;html=1;exitX=0;exitY=0;exitDx=0;exitDy=0;endArrow=oval;endFill=0;" edge="1" parent="1">
          <mxGeometry relative="1" as="geometry">
            <mxPoint x="278.88" y="33.25" as="targetPoint" />
            <mxPoint x="278.88" y="51.25" as="sourcePoint" />
            <Array as="points" />
          </mxGeometry>
        </mxCell>
        <mxCell id="ON7FVvxAz2R6hxNgBrQi-23" style="edgeStyle=orthogonalEdgeStyle;rounded=0;orthogonalLoop=1;jettySize=auto;html=1;exitX=0;exitY=0;exitDx=0;exitDy=0;endArrow=oval;endFill=0;" edge="1" parent="1">
          <mxGeometry relative="1" as="geometry">
            <mxPoint x="310.63" y="33.25" as="targetPoint" />
            <mxPoint x="310.63" y="51.25" as="sourcePoint" />
            <Array as="points" />
          </mxGeometry>
        </mxCell>
        <mxCell id="ON7FVvxAz2R6hxNgBrQi-24" style="edgeStyle=orthogonalEdgeStyle;rounded=0;orthogonalLoop=1;jettySize=auto;html=1;exitX=1;exitY=0.5;exitDx=0;exitDy=0;endArrow=oval;endFill=0;" edge="1" parent="1">
          <mxGeometry relative="1" as="geometry">
            <mxPoint x="316.88" y="79.22" as="sourcePoint" />
            <mxPoint x="340" y="79.22" as="targetPoint" />
          </mxGeometry>
        </mxCell>
        <mxCell id="ON7FVvxAz2R6hxNgBrQi-25" style="edgeStyle=orthogonalEdgeStyle;rounded=0;orthogonalLoop=1;jettySize=auto;html=1;exitX=1;exitY=0.5;exitDx=0;exitDy=0;endArrow=oval;endFill=0;" edge="1" parent="1">
          <mxGeometry relative="1" as="geometry">
            <mxPoint x="316.88" y="54.38" as="sourcePoint" />
            <mxPoint x="340" y="54.38" as="targetPoint" />
          </mxGeometry>
        </mxCell>
        <mxCell id="ON7FVvxAz2R6hxNgBrQi-26" value="&lt;font style=&quot;font-size: 8px;&quot;&gt;Tecnologia&lt;/font&gt;" style="text;html=1;align=center;verticalAlign=middle;whiteSpace=wrap;rounded=1;strokeColor=none;" vertex="1" parent="1">
          <mxGeometry x="341.88" y="43.379999999999995" width="46" height="19" as="geometry" />
        </mxCell>
        <mxCell id="ON7FVvxAz2R6hxNgBrQi-27" value="&lt;font style=&quot;font-size: 8px;&quot;&gt;Ora&lt;/font&gt;" style="text;html=1;align=center;verticalAlign=middle;whiteSpace=wrap;rounded=1;strokeColor=none;glass=0;" vertex="1" parent="1">
          <mxGeometry x="-53.489999999999995" y="21.379999999999995" width="50" height="15" as="geometry" />
        </mxCell>
        <mxCell id="ON7FVvxAz2R6hxNgBrQi-28" value="&lt;font style=&quot;font-size: 8px;&quot;&gt;Data&lt;/font&gt;" style="text;html=1;align=center;verticalAlign=middle;whiteSpace=wrap;rounded=1;strokeColor=none;glass=0;" vertex="1" parent="1">
          <mxGeometry x="-53.489999999999995" y="8.819999999999993" width="50" height="15" as="geometry" />
        </mxCell>
        <mxCell id="ON7FVvxAz2R6hxNgBrQi-29" style="edgeStyle=orthogonalEdgeStyle;rounded=0;orthogonalLoop=1;jettySize=auto;html=1;exitX=0;exitY=0;exitDx=0;exitDy=0;endArrow=oval;endFill=0;" edge="1" parent="1">
          <mxGeometry relative="1" as="geometry">
            <mxPoint x="-15.489999999999997" y="18.17999999999995" as="targetPoint" />
            <mxPoint x="3.8900000000000006" y="18.17999999999995" as="sourcePoint" />
            <Array as="points" />
          </mxGeometry>
        </mxCell>
        <mxCell id="ON7FVvxAz2R6hxNgBrQi-30" style="edgeStyle=orthogonalEdgeStyle;rounded=0;orthogonalLoop=1;jettySize=auto;html=1;endArrow=oval;endFill=0;" edge="1" parent="1">
          <mxGeometry relative="1" as="geometry">
            <mxPoint x="-15.489999999999997" y="31.299999999999955" as="targetPoint" />
            <mxPoint x="4.510000000000005" y="31.299999999999955" as="sourcePoint" />
            <Array as="points" />
          </mxGeometry>
        </mxCell>
        <mxCell id="ON7FVvxAz2R6hxNgBrQi-31" value="" style="endArrow=none;html=1;rounded=0;entryX=0.551;entryY=1.003;entryDx=0;entryDy=0;entryPerimeter=0;" edge="1" parent="1">
          <mxGeometry width="50" height="50" relative="1" as="geometry">
            <mxPoint x="14.010000000000005" y="56.91999999999996" as="sourcePoint" />
            <mxPoint x="14.010000000000005" y="33.860000000000014" as="targetPoint" />
          </mxGeometry>
        </mxCell>
        <mxCell id="ON7FVvxAz2R6hxNgBrQi-32" value="&lt;p style=&quot;line-height: 110%;&quot;&gt;&lt;font style=&quot;font-size: 7px;&quot;&gt;DataVisita&lt;/font&gt;&lt;/p&gt;" style="ellipse;whiteSpace=wrap;html=1;" vertex="1" parent="1">
          <mxGeometry x="-3.4899999999999944" y="13.799999999999955" width="36.12" height="20" as="geometry" />
        </mxCell>
        <mxCell id="ON7FVvxAz2R6hxNgBrQi-33" value="&lt;font style=&quot;font-size: 8px;&quot;&gt;Durata&lt;/font&gt;" style="text;html=1;align=center;verticalAlign=middle;whiteSpace=wrap;rounded=1;strokeColor=none;glass=0;" vertex="1" parent="1">
          <mxGeometry x="-6.739999999999995" y="101.13" width="50" height="17" as="geometry" />
        </mxCell>
        <mxCell id="ON7FVvxAz2R6hxNgBrQi-34" style="edgeStyle=orthogonalEdgeStyle;rounded=0;orthogonalLoop=1;jettySize=auto;html=1;exitX=1;exitY=0.5;exitDx=0;exitDy=0;endArrow=oval;endFill=0;" edge="1" parent="1">
          <mxGeometry relative="1" as="geometry">
            <mxPoint x="18.47000000000004" y="101.84000000000003" as="targetPoint" />
            <mxPoint x="18.060000000000016" y="81.41999999999996" as="sourcePoint" />
            <Array as="points">
              <mxPoint x="18.060000000000016" y="101.41999999999996" />
            </Array>
          </mxGeometry>
        </mxCell>
        <mxCell id="ON7FVvxAz2R6hxNgBrQi-35" value="&lt;span style=&quot;font-size: 8px;&quot;&gt;(1,N)&lt;/span&gt;" style="text;html=1;align=center;verticalAlign=middle;whiteSpace=wrap;rounded=1;strokeColor=none;glass=0;" vertex="1" parent="1">
          <mxGeometry x="-115.61999999999995" y="51.25000000000007" width="22.5" height="6.75" as="geometry" />
        </mxCell>
        <mxCell id="ON7FVvxAz2R6hxNgBrQi-36" value="&lt;font style=&quot;font-size: 8px;&quot;&gt;(0,N)&lt;/font&gt;" style="text;html=1;align=center;verticalAlign=middle;whiteSpace=wrap;rounded=1;strokeColor=none;glass=0;" vertex="1" parent="1">
          <mxGeometry x="170.95" y="49.249999999999886" width="22.5" height="6.75" as="geometry" />
        </mxCell>
        <mxCell id="ON7FVvxAz2R6hxNgBrQi-37" value="Sostiene" style="shape=rhombus;perimeter=rhombusPerimeter;whiteSpace=wrap;html=1;align=center;" vertex="1" parent="1">
          <mxGeometry x="-103.00000000000001" y="48.820000000000014" width="73.56" height="42.36" as="geometry" />
        </mxCell>
        <mxCell id="ON7FVvxAz2R6hxNgBrQi-38" value="" style="endArrow=none;html=1;rounded=0;entryX=1;entryY=0.5;entryDx=0;entryDy=0;exitX=0;exitY=0.5;exitDx=0;exitDy=0;" edge="1" parent="1" source="ON7FVvxAz2R6hxNgBrQi-40" target="ON7FVvxAz2R6hxNgBrQi-37">
          <mxGeometry width="50" height="50" relative="1" as="geometry">
            <mxPoint x="161.14000000000004" y="69.48000000000002" as="sourcePoint" />
            <mxPoint x="-107.05000000000001" y="69.48000000000002" as="targetPoint" />
          </mxGeometry>
        </mxCell>
        <mxCell id="ON7FVvxAz2R6hxNgBrQi-39" value="" style="endArrow=none;html=1;rounded=0;entryX=1;entryY=0.5;entryDx=0;entryDy=0;exitX=0;exitY=0.5;exitDx=0;exitDy=0;" edge="1" parent="1" source="ON7FVvxAz2R6hxNgBrQi-41" target="ON7FVvxAz2R6hxNgBrQi-40">
          <mxGeometry width="50" height="50" relative="1" as="geometry">
            <mxPoint x="161.14000000000004" y="69.48000000000002" as="sourcePoint" />
            <mxPoint x="-23.049999999999997" y="69.22000000000003" as="targetPoint" />
          </mxGeometry>
        </mxCell>
        <mxCell id="ON7FVvxAz2R6hxNgBrQi-40" value="Visita" style="whiteSpace=wrap;html=1;align=center;" vertex="1" parent="1">
          <mxGeometry x="0.9500000000000028" y="56.48000000000002" width="90.38" height="26.28" as="geometry" />
        </mxCell>
        <mxCell id="ON7FVvxAz2R6hxNgBrQi-41" value="Utilizza" style="shape=rhombus;perimeter=rhombusPerimeter;whiteSpace=wrap;html=1;align=center;" vertex="1" parent="1">
          <mxGeometry x="116.88" y="49.24999999999996" width="70" height="39.81" as="geometry" />
        </mxCell>
        <mxCell id="ON7FVvxAz2R6hxNgBrQi-42" value="&lt;span style=&quot;font-size: 8px;&quot;&gt;(1,1)&lt;/span&gt;" style="text;html=1;align=center;verticalAlign=middle;whiteSpace=wrap;rounded=1;strokeColor=none;glass=0;" vertex="1" parent="1">
          <mxGeometry x="-39.04999999999994" y="51.25000000000007" width="22.5" height="6.75" as="geometry" />
        </mxCell>
        <mxCell id="ON7FVvxAz2R6hxNgBrQi-43" value="&lt;span style=&quot;font-size: 8px;&quot;&gt;(1,N)&lt;/span&gt;" style="text;html=1;align=center;verticalAlign=middle;whiteSpace=wrap;rounded=1;strokeColor=none;glass=0;" vertex="1" parent="1">
          <mxGeometry x="106.88000000000005" y="50.00000000000006" width="22.5" height="6.75" as="geometry" />
        </mxCell>
        <mxCell id="ON7FVvxAz2R6hxNgBrQi-44" style="edgeStyle=orthogonalEdgeStyle;rounded=0;orthogonalLoop=1;jettySize=auto;html=1;exitX=0.25;exitY=0;exitDx=0;exitDy=0;entryX=0.842;entryY=1.009;entryDx=0;entryDy=0;entryPerimeter=0;endArrow=oval;endFill=1;" edge="1" parent="1">
          <mxGeometry relative="1" as="geometry">
            <mxPoint x="44.64" y="56.48000000000002" as="sourcePoint" />
            <mxPoint x="47.64" y="43.48000000000002" as="targetPoint" />
          </mxGeometry>
        </mxCell>
        <mxCell id="ON7FVvxAz2R6hxNgBrQi-45" value="&lt;font style=&quot;font-size: 9px;&quot;&gt;Codice&lt;/font&gt;" style="text;html=1;align=center;verticalAlign=middle;whiteSpace=wrap;rounded=0;" vertex="1" parent="1">
          <mxGeometry x="26.140000000000057" y="23.821011673151702" width="40" height="17.314202334630348" as="geometry" />
        </mxCell>
        <mxCell id="ON7FVvxAz2R6hxNgBrQi-46" style="edgeStyle=orthogonalEdgeStyle;rounded=0;orthogonalLoop=1;jettySize=auto;html=1;exitX=1;exitY=0.5;exitDx=0;exitDy=0;endArrow=oval;endFill=0;" edge="1" parent="1">
          <mxGeometry relative="1" as="geometry">
            <mxPoint x="-140.12" y="82.5" as="targetPoint" />
            <mxPoint x="-160" y="82.5" as="sourcePoint" />
            <Array as="points">
              <mxPoint x="-145.12" y="82.5" />
            </Array>
          </mxGeometry>
        </mxCell>
        <mxCell id="ON7FVvxAz2R6hxNgBrQi-47" value="&lt;span style=&quot;font-size: 8px;&quot;&gt;Data&amp;nbsp;&lt;/span&gt;&lt;div style=&quot;line-height: 20%;&quot;&gt;&lt;span style=&quot;font-size: 8px;&quot;&gt;di nascita&lt;/span&gt;&lt;/div&gt;" style="text;html=1;align=center;verticalAlign=middle;whiteSpace=wrap;rounded=1;strokeColor=none;" vertex="1" parent="1">
          <mxGeometry x="-141" y="71" width="37" height="21" as="geometry" />
        </mxCell>
      </root>
    </mxGraphModel>
  </diagram>
</mxfile>
